<mxfile host="app.diagrams.net" agent="Mozilla/5.0 (Windows NT 10.0; Win64; x64) AppleWebKit/537.36 (KHTML, like Gecko) Chrome/126.0.0.0 Safari/537.36 OPR/112.0.0.0" version="24.7.13">
  <diagram name="Página-1" id="IbyoJmkPU1yOUM7PXJ1G">
    <mxGraphModel grid="1" page="1" gridSize="10" guides="1" tooltips="1" connect="1" arrows="1" fold="1" pageScale="1" pageWidth="827" pageHeight="1169" math="0" shadow="0">
      <root>
        <mxCell id="0" />
        <mxCell id="1" parent="0" />
        <mxCell id="Vnt051X93d8bJ1U-L0CY-1" value="4)Recuperación de usuario y contraseña" style="text;whiteSpace=wrap;" vertex="1" parent="1">
          <mxGeometry x="289" y="270" width="250" height="40" as="geometry" />
        </mxCell>
        <mxCell id="-d1KlJ-c1ww56RGFkypZ-1" value="" style="rounded=0;whiteSpace=wrap;html=1;align=left;" vertex="1" parent="1">
          <mxGeometry x="150" y="170" width="540" height="340" as="geometry" />
        </mxCell>
        <mxCell id="-d1KlJ-c1ww56RGFkypZ-2" value="" style="edgeStyle=orthogonalEdgeStyle;rounded=0;orthogonalLoop=1;jettySize=auto;html=1;" edge="1" parent="1" target="-d1KlJ-c1ww56RGFkypZ-5">
          <mxGeometry relative="1" as="geometry">
            <mxPoint x="190" y="330" as="targetPoint" />
            <mxPoint x="140" y="335" as="sourcePoint" />
          </mxGeometry>
        </mxCell>
        <mxCell id="-d1KlJ-c1ww56RGFkypZ-3" value="User" style="shape=umlActor;verticalLabelPosition=bottom;verticalAlign=top;html=1;outlineConnect=0;" vertex="1" parent="1">
          <mxGeometry x="110" y="300" width="30" height="60" as="geometry" />
        </mxCell>
        <mxCell id="-d1KlJ-c1ww56RGFkypZ-4" value="" style="edgeStyle=orthogonalEdgeStyle;rounded=0;orthogonalLoop=1;jettySize=auto;html=1;" edge="1" parent="1" source="-d1KlJ-c1ww56RGFkypZ-5" target="-d1KlJ-c1ww56RGFkypZ-7">
          <mxGeometry relative="1" as="geometry" />
        </mxCell>
        <mxCell id="-d1KlJ-c1ww56RGFkypZ-5" value="Ingresar apartado de recuperar contraseña" style="ellipse;whiteSpace=wrap;html=1;" vertex="1" parent="1">
          <mxGeometry x="180" y="300" width="130" height="70" as="geometry" />
        </mxCell>
        <mxCell id="-d1KlJ-c1ww56RGFkypZ-6" style="edgeStyle=orthogonalEdgeStyle;rounded=0;orthogonalLoop=1;jettySize=auto;html=1;exitX=0.5;exitY=0;exitDx=0;exitDy=0;entryX=0.5;entryY=1;entryDx=0;entryDy=0;" edge="1" parent="1" source="-d1KlJ-c1ww56RGFkypZ-7" target="-d1KlJ-c1ww56RGFkypZ-8">
          <mxGeometry relative="1" as="geometry">
            <Array as="points">
              <mxPoint x="390" y="300" />
              <mxPoint x="390" y="290" />
              <mxPoint x="435" y="290" />
            </Array>
          </mxGeometry>
        </mxCell>
        <mxCell id="-d1KlJ-c1ww56RGFkypZ-7" value="Ingresar correo electrónico" style="ellipse;whiteSpace=wrap;html=1;" vertex="1" parent="1">
          <mxGeometry x="330" y="300" width="110" height="70" as="geometry" />
        </mxCell>
        <mxCell id="H_KO68KWv3suRPTLw482-3" style="edgeStyle=orthogonalEdgeStyle;rounded=0;orthogonalLoop=1;jettySize=auto;html=1;" edge="1" parent="1" source="-d1KlJ-c1ww56RGFkypZ-8" target="H_KO68KWv3suRPTLw482-2">
          <mxGeometry relative="1" as="geometry" />
        </mxCell>
        <mxCell id="-d1KlJ-c1ww56RGFkypZ-8" value="Cambiar contraseña" style="ellipse;whiteSpace=wrap;html=1;" vertex="1" parent="1">
          <mxGeometry x="380" y="200" width="110" height="70" as="geometry" />
        </mxCell>
        <mxCell id="-d1KlJ-c1ww56RGFkypZ-9" value="Iniciar sesión" style="ellipse;whiteSpace=wrap;html=1;" vertex="1" parent="1">
          <mxGeometry x="520" y="305" width="110" height="70" as="geometry" />
        </mxCell>
        <mxCell id="-d1KlJ-c1ww56RGFkypZ-10" value="implement" style="endArrow=block;dashed=1;endFill=0;endSize=12;html=1;rounded=0;exitX=0.5;exitY=1;exitDx=0;exitDy=0;entryX=0.5;entryY=0;entryDx=0;entryDy=0;" edge="1" parent="1" source="H_KO68KWv3suRPTLw482-2" target="-d1KlJ-c1ww56RGFkypZ-9">
          <mxGeometry x="0.0308" y="-2" width="160" relative="1" as="geometry">
            <mxPoint x="330" y="410" as="sourcePoint" />
            <mxPoint x="490" y="410" as="targetPoint" />
            <Array as="points" />
            <mxPoint as="offset" />
          </mxGeometry>
        </mxCell>
        <mxCell id="H_KO68KWv3suRPTLw482-2" value="Ingresar datos nuevos" style="ellipse;whiteSpace=wrap;html=1;" vertex="1" parent="1">
          <mxGeometry x="520" y="200" width="110" height="70" as="geometry" />
        </mxCell>
      </root>
    </mxGraphModel>
  </diagram>
</mxfile>
